<?xml version="1.0" standalone="no"?>
<!DOCTYPE svg PUBLIC "-//W3C//DTD SVG 20010904//EN"
 "http://www.w3.org/TR/2001/REC-SVG-20010904/DTD/svg10.dtd">
<svg version="1.0" xmlns="http://www.w3.org/2000/svg"
 width="700.000000pt" height="700.000000pt" viewBox="0 0 700.000000 700.000000"
 preserveAspectRatio="xMidYMid meet">
<metadata>
Created by potrace 1.14, written by Peter Selinger 2001-2017
</metadata>
<g transform="translate(0.000000,700.000000) scale(0.100000,-0.100000)"
fill="#000000" stroke="none">
<path d="M985 5901 c-90 -26 -144 -58 -206 -121 -60 -61 -102 -135 -123 -216
-10 -39 -12 -469 -11 -2079 1 -1921 2 -2033 18 -2080 55 -152 167 -260 319
-306 61 -18 135 -19 2518 -19 2352 0 2458 1 2515 19 93 28 145 59 207 122 63
64 111 155 126 235 5 30 8 878 7 2070 -1 1914 -2 2022 -19 2069 -42 117 -114
206 -211 260 -122 69 83 64 -2625 64 -2306 0 -2459 -2 -2515 -18z m4906 -491
c0 -55 0 -3769 0 -3825 l-1 -40 -2390 0 -2390 0 -1 45 c0 58 0 3761 0 3820 l1
45 2390 0 2390 0 1 -45z"/>
<path d="M2150 4590 c-111 -20 -187 -118 -177 -232 7 -84 34 -121 167 -225 8
-6 92 -73 185 -148 94 -75 185 -149 204 -163 104 -82 359 -287 378 -304 l22
-20 -427 -341 c-235 -188 -446 -359 -468 -382 -82 -80 -86 -203 -9 -292 41
-49 102 -76 168 -74 42 1 113 24 127 41 3 4 48 40 100 80 52 41 101 80 108 87
7 7 41 34 75 60 34 26 73 57 87 69 14 12 153 124 310 249 465 370 441 350 468
396 34 56 40 134 14 190 -12 24 -27 52 -34 61 -24 28 -1142 919 -1168 930 -41
17 -93 24 -130 18z"/>
<path d="M3645 2828 c-83 -28 -145 -113 -145 -202 0 -82 50 -160 127 -197 l48
-23 595 0 c588 0 596 1 636 22 76 39 124 115 124 197 0 56 -18 100 -59 147
-64 73 -47 71 -696 72 -517 1 -585 -1 -630 -16z"/>
</g>
</svg>
